<?xml version="1.0" encoding="utf-8"?>
<!-- Generator: Adobe Illustrator 16.0.0, SVG Export Plug-In . SVG Version: 6.00 Build 0)  -->
<!DOCTYPE svg PUBLIC "-//W3C//DTD SVG 1.0//EN" "http://www.w3.org/TR/2001/REC-SVG-20010904/DTD/svg10.dtd">
<svg version="1.0" id="Layer_1" xmlns="http://www.w3.org/2000/svg" xmlns:xlink="http://www.w3.org/1999/xlink" x="0px" y="0px"
	 width="100px" height="100px" viewBox="0 0 100 100" enable-background="new 0 0 100 100" xml:space="preserve">
<path d="M86.11,50.586C88.503,47.698,90,44.043,90,40c0-9.206-7.461-16.667-16.667-16.667C70.071,15.501,62.347,10,53.333,10
	c-12.421,0-22.825,8.503-25.794,20h-4.206C15.97,30,10,35.97,10,43.333c0,7.362,5.97,13.333,13.333,13.333h23.623
	c-1.195,2.066-2.139,4.297-2.751,6.666H40c-7.363,0-13.333,5.971-13.333,13.334S32.637,90,40,90h50v-6.668H40
	c-3.678,0-6.667-2.994-6.667-6.666C33.333,72.988,36.322,70,40,70h10c0-11.049,8.955-20,20-20c7.702,0,13.991,5.852,14.831,13.332
	H90v-6.666c-0.94-2.26-2.288-4.291-3.894-6.088L86.11,50.586z M70,43.333c-6.751,0-12.897,2.526-17.585,6.667l0,0H23.333
	c-3.679,0-6.667-2.995-6.667-6.667c0-3.678,2.988-6.666,6.667-6.666h10c0-11.049,8.955-20,20-20c7.702,0,13.991,5.853,14.831,13.333
	h5.169c5.515,0,10,4.485,10,10c0,2.437-0.911,4.642-2.363,6.377v0.002C77.747,44.473,74.017,43.333,70,43.333z"/>
</svg>
