<?xml version="1.0" encoding="utf-8"?>
<!-- Generator: Adobe Illustrator 16.0.0, SVG Export Plug-In . SVG Version: 6.00 Build 0)  -->
<!DOCTYPE svg PUBLIC "-//W3C//DTD SVG 1.0//EN" "http://www.w3.org/TR/2001/REC-SVG-20010904/DTD/svg10.dtd">
<svg version="1.0" id="Layer_1" xmlns="http://www.w3.org/2000/svg" xmlns:xlink="http://www.w3.org/1999/xlink" x="0px" y="0px"
	 width="100px" height="100px" viewBox="0 0 100 100" enable-background="new 0 0 100 100" xml:space="preserve">
<path d="M88.984,48.232C88.987,48.232,76.67,20,76.67,20L64.353,48.229c-0.654,1.572-1.02,3.296-1.02,5.103
	c0,7.363,5.971,13.334,13.334,13.334S90,60.695,90,53.332C90,51.525,89.636,49.805,88.984,48.232z M76.667,60
	C72.991,60,70,57.008,70,53.332c0-0.879,0.169-1.73,0.508-2.541L76.67,36.67c2.933,6.727,5.882,13.486,6.172,14.15
	c0.325,0.803,0.491,1.646,0.491,2.512C83.333,57.008,80.342,60,76.667,60z"/>
<path d="M62.571,76.174c0.004,0-9.234-21.174-9.234-21.174l-9.239,21.172c-0.491,1.178-0.765,2.473-0.765,3.828
	c0,5.523,4.479,10,10,10c5.521,0,10-4.477,10-10C63.333,78.645,63.06,77.354,62.571,76.174z M53.333,83.332
	C51.497,83.332,50,81.838,50,80c0-0.438,0.085-0.863,0.251-1.264l3.086-7.066c1.578,3.625,2.896,6.646,3.089,7.09
	c0.159,0.396,0.241,0.813,0.241,1.24C56.667,81.838,55.173,83.332,53.333,83.332z"/>
<path d="M42.064,45.29C42.067,45.29,26.67,10,26.67,10L11.273,45.286C10.456,47.253,10,49.407,10,51.666
	c0,9.205,7.462,16.666,16.667,16.666c9.206,0,16.667-7.461,16.667-16.666C43.333,49.407,42.877,47.256,42.064,45.29z M26.667,61.666
	c-5.514,0-10-4.486-10-10c0-1.317,0.257-2.604,0.762-3.821L26.67,26.67c4.126,9.458,8.887,20.374,9.251,21.211
	c0.495,1.211,0.745,2.483,0.745,3.785C36.667,57.18,32.181,61.666,26.667,61.666z"/>
</svg>
