<?xml version="1.0" encoding="utf-8"?>
<!-- Generator: Adobe Illustrator 16.0.0, SVG Export Plug-In . SVG Version: 6.00 Build 0)  -->
<!DOCTYPE svg PUBLIC "-//W3C//DTD SVG 1.0//EN" "http://www.w3.org/TR/2001/REC-SVG-20010904/DTD/svg10.dtd">
<svg version="1.0" id="Layer_1" xmlns="http://www.w3.org/2000/svg" xmlns:xlink="http://www.w3.org/1999/xlink" x="0px" y="0px"
	 width="100px" height="100px" viewBox="0 0 100 100" enable-background="new 0 0 100 100" xml:space="preserve">
<path d="M90,43.333H58.333C56.491,43.333,55,41.839,55,40c0-1.843,1.491-3.333,3.333-3.333H65v-8.334c0-2.764,2.236-5,5-5
	s5,2.236,5,5h6.667V25c0-4.603,3.73-8.333,8.333-8.333V10c-5.996,0-11.133,3.542-13.532,8.63c-1.852-1.237-4.072-1.963-6.468-1.963
	c-6.445,0-11.667,5.221-11.667,11.666V30c-5.523,0-10,4.476-10,10c0,5.521,4.476,10,10,10H90V43.333z"/>
<path d="M73.333,70v-1.668c0-6.445-5.221-11.666-11.666-11.666c-2.396,0-4.616,0.727-6.469,1.963
	c-2.174-4.609-6.604-7.92-11.876-8.505c0-0.046,0.012-0.082,0.012-0.124c0-7.363-5.969-13.333-13.332-13.333
	c-0.057,0-0.11,0.016-0.167,0.016c-0.832-7.496-7.113-13.35-14.833-13.35c-1.763,0-3.436,0.337-5.001,0.898v7.473
	C11.396,30.649,13.115,30,15.001,30c4.602,0,8.332,3.73,8.332,8.333v5h6.668c3.682,0,6.665,2.985,6.665,6.667
	c0,0.319-0.045,0.617-0.089,0.924c-2.997,1.094-5.504,3.129-7.251,5.742H10v6.666c0,0,16.722,0,16.665,0
	c-7.363,0-13.332,5.971-13.332,13.334S19.302,90,26.665,90h46.668c5.524,0,10-4.48,10-10C83.333,74.475,78.857,70,73.333,70z
	 M73.333,83.332H26.665c-3.682,0-6.665-2.984-6.665-6.666S22.983,70,26.665,70h6.668v-5c0-4.604,3.73-8.334,8.332-8.334
	C46.27,56.666,50,60.396,50,65v3.332h6.667c0-2.764,2.236-5,5-5s5,2.236,5,5v8.334h6.666c1.843,0,3.334,1.49,3.334,3.334
	C76.667,81.838,75.176,83.332,73.333,83.332z"/>
</svg>
