<?xml version="1.0" encoding="utf-8"?>
<!-- Generator: Adobe Illustrator 16.0.0, SVG Export Plug-In . SVG Version: 6.00 Build 0)  -->
<!DOCTYPE svg PUBLIC "-//W3C//DTD SVG 1.0//EN" "http://www.w3.org/TR/2001/REC-SVG-20010904/DTD/svg10.dtd">
<svg version="1.0" id="Layer_1" xmlns="http://www.w3.org/2000/svg" xmlns:xlink="http://www.w3.org/1999/xlink" x="0px" y="0px"
	 width="100px" height="100px" viewBox="0 0 100 100" enable-background="new 0 0 100 100" xml:space="preserve">
<path d="M84.743,53.73L69.98,57.683l-4.238-2.441c0.554-1.66,0.925-3.398,0.925-5.241c0-1.842-0.371-3.584-0.925-5.24l4.238-2.448
	l14.763,3.958l1.725-6.438l-8.323-2.233l8.164-4.713l-3.333-5.775l-8.164,4.714l2.229-8.32l-6.438-1.726l-3.955,14.76l-4.232,2.444
	c-2.35-2.646-5.481-4.58-9.082-5.315v-4.812l10.808-10.808l-4.714-4.713l-6.094,6.094V10h-6.666v9.428l-6.094-6.094l-4.714,4.713
	l10.808,10.808v4.812c-3.601,0.735-6.732,2.669-9.082,5.313l-4.232-2.441l-3.955-14.76l-6.438,1.726l2.229,8.32l-8.164-4.714
	l-3.333,5.775l8.164,4.713l-8.323,2.233l1.725,6.438l14.763-3.958l4.238,2.448c-0.554,1.653-0.925,3.398-0.925,5.24
	c0,1.843,0.371,3.581,0.925,5.241l-4.238,2.441L15.257,53.73l-1.725,6.438l8.323,2.227l-8.164,4.714l3.333,5.774l8.164-4.713
	l-2.229,8.326l6.438,1.726l3.955-14.766l4.232-2.441c2.35,2.649,5.481,4.583,9.082,5.313v4.817L35.859,81.953l4.714,4.714
	l6.094-6.094V90h6.666v-9.427l6.094,6.094l4.714-4.714L53.333,71.146v-4.817c3.601-0.729,6.732-2.663,9.082-5.313l4.232,2.441
	l3.955,14.766l6.438-1.726l-2.229-8.32l8.16,4.707l3.337-5.774l-8.164-4.714l8.323-2.227L84.743,53.73z M50,60
	c-5.524,0-10-4.479-10-10c0-5.523,4.476-10,10-10c5.521,0,10,4.477,10,10C60,55.521,55.521,60,50,60z"/>
</svg>
