<?xml version="1.0" encoding="utf-8"?>
<!-- Generator: Adobe Illustrator 16.0.0, SVG Export Plug-In . SVG Version: 6.00 Build 0)  -->
<!DOCTYPE svg PUBLIC "-//W3C//DTD SVG 1.0//EN" "http://www.w3.org/TR/2001/REC-SVG-20010904/DTD/svg10.dtd">
<svg version="1.0" id="Layer_1" xmlns="http://www.w3.org/2000/svg" xmlns:xlink="http://www.w3.org/1999/xlink" x="0px" y="0px"
	 width="100px" height="100px" viewBox="0 0 100 100" enable-background="new 0 0 100 100" xml:space="preserve">
<polygon points="60,40 47.777,40 40,63.333 50,63.333 43.333,83.333 63.333,56.667 53.333,56.667 "/>
<path d="M33.333,43.333c0-11.045,8.955-20,20-20c7.702,0,13.991,5.853,14.831,13.333h5.169c5.515,0,10,4.486,10,10s-4.485,10-10,10
	H70v6.666h3.333C82.539,63.333,90,55.872,90,46.667S82.539,30,73.333,30c-3.262-7.829-10.986-13.333-20-13.333
	c-12.42,0-22.827,8.506-25.792,20h-4.207C15.97,36.667,10,42.637,10,50s5.97,13.333,13.333,13.333h10v-6.666h-10
	c-3.677,0-6.667-2.992-6.667-6.667c0-3.675,2.99-6.667,6.667-6.667H33.333z"/>
</svg>
